# xmcd
#
# Track frame offsets:
#	150
#	23332
#	49970
#	83715
#	111887
#	155100
#	184647
#	213522
#
# Disc length: 3077 seconds
#
# Revision: 1
# Processed by: cddbd v1.5.2PL0 Copyright (c) Steve Scherf et al.
# Submitted via: audiograbber 1.83.01
#
DISCID=620c0308
DTITLE=Too Short - Born To Mack
DYEAR=1989
DGENRE=Rap
TTITLE0=Partytime
TTITLE1=Mack Attack
TTITLE2=Playboy $hort II
TTITLE3=You Know What I Mean
TTITLE4=Freaky Tales
TTITLE5=Dope Fiend Beat
TTITLE6=Little Girls
TTITLE7=The Universal Mix
EXTD=RapMusicGuide.com
EXTT0=
EXTT1=
EXTT2=
EXTT3=
EXTT4=
EXTT5=
EXTT6=
EXTT7=
PLAYORDER=
